<svg version="1.1" preserveAspectRatio="none" xmlns="http://www.w3.org/2000/svg" width="500" height="500" viewBox="0 0 500 500"><rect width="100%" height="100%" fill="#F1F1F1" fill-opacity="1"/><svg viewBox="252.3993 733.2546 281.4383 290.7306" width="322.356690007863" height="333" x="88.8217px" y="83.5px" xmlns="http://www.w3.org/2000/svg" xmlns:xlink="http://www.w3.org/1999/xlink" preserveAspectRatio="none"><defs></defs><style>.companyName {fill:#3B3B6B;fill-opacity:1;}.icon1 {fill:#D24848;fill-opacity:1;}.icon2 {fill:#CCAF60;fill-opacity:1;}.icon3 {fill:#797468;fill-opacity:1;}.icon3-str {stroke:#797468;stroke-opacity:1;}</style><g opacity="1" transform="rotate(0 252.3993 903.9852)">
<svg width="281.4383" height="120" x="252.3993" y="903.9852" version="1.1" preserveAspectRatio="none" viewBox="0.84 -30.88 73.08 31.159999999999997">
  <g transform="matrix(1 0 0 1 0 0)" class="companyName"><path id="id-D6z1nYkh4" d="M9.88 0.28Q7.28 0.28 4.80-0.40Q2.32-1.08 0.84-2.12L0.84-2.12L2.76-5.92Q4.20-4.96 6.22-4.38Q8.24-3.80 10.20-3.80L10.20-3.80Q14.68-3.80 14.68-6.16L14.68-6.16Q14.68-7.28 13.54-7.72Q12.40-8.16 9.88-8.56L9.88-8.56Q7.24-8.96 5.58-9.48Q3.92-10 2.70-11.30Q1.48-12.60 1.48-14.92L1.48-14.92Q1.48-17.96 4.02-19.78Q6.56-21.60 10.88-21.60L10.88-21.60Q13.08-21.60 15.28-21.10Q17.48-20.60 18.88-19.76L18.88-19.76L16.96-15.96Q14.24-17.56 10.84-17.56L10.84-17.56Q8.64-17.56 7.50-16.90Q6.36-16.24 6.36-15.16L6.36-15.16Q6.36-13.96 7.58-13.46Q8.80-12.96 11.36-12.52L11.36-12.52Q13.92-12.12 15.56-11.60Q17.20-11.08 18.38-9.84Q19.56-8.60 19.56-6.32L19.56-6.32Q19.56-3.32 16.96-1.52Q14.36 0.28 9.88 0.28L9.88 0.28Z M23.88 0L23.88-21.36L28.88-21.36L28.88 0L23.88 0ZM26.40-24.88Q25.04-24.88 24.12-25.74Q23.20-26.60 23.20-27.88L23.20-27.88Q23.20-29.16 24.12-30.02Q25.04-30.88 26.40-30.88L26.40-30.88Q27.76-30.88 28.68-30.06Q29.60-29.24 29.60-28L29.60-28Q29.60-26.68 28.70-25.78Q27.80-24.88 26.40-24.88L26.40-24.88Z M42.04 0.28Q39.44 0.28 36.96-0.40Q34.48-1.08 33.00-2.12L33.00-2.12L34.92-5.92Q36.36-4.96 38.38-4.38Q40.40-3.80 42.36-3.80L42.36-3.80Q46.84-3.80 46.84-6.16L46.84-6.16Q46.84-7.28 45.70-7.72Q44.56-8.16 42.04-8.56L42.04-8.56Q39.40-8.96 37.74-9.48Q36.08-10 34.86-11.30Q33.64-12.60 33.64-14.92L33.64-14.92Q33.64-17.96 36.18-19.78Q38.72-21.60 43.04-21.60L43.04-21.60Q45.24-21.60 47.44-21.10Q49.64-20.60 51.04-19.76L51.04-19.76L49.12-15.96Q46.40-17.56 43-17.56L43-17.56Q40.80-17.56 39.66-16.90Q38.52-16.24 38.52-15.16L38.52-15.16Q38.52-13.96 39.74-13.46Q40.96-12.96 43.52-12.52L43.52-12.52Q46.08-12.12 47.72-11.60Q49.36-11.08 50.54-9.84Q51.72-8.60 51.72-6.32L51.72-6.32Q51.72-3.32 49.12-1.52Q46.52 0.28 42.04 0.28L42.04 0.28Z M64.20-21.60Q68.92-21.60 71.42-19.34Q73.92-17.08 73.92-12.52L73.92-12.52L73.92 0L69.20 0L69.20-2.60Q68.28-1.20 66.58-0.46Q64.88 0.28 62.48 0.28L62.48 0.28Q60.08 0.28 58.28-0.54Q56.48-1.36 55.50-2.82Q54.52-4.28 54.52-6.12L54.52-6.12Q54.52-9 56.66-10.74Q58.80-12.48 63.40-12.48L63.40-12.48L68.92-12.48L68.92-12.80Q68.92-15.04 67.58-16.24Q66.24-17.44 63.60-17.44L63.60-17.44Q61.80-17.44 60.06-16.88Q58.32-16.32 57.12-15.32L57.12-15.32L55.16-18.96Q56.84-20.24 59.20-20.92Q61.56-21.60 64.20-21.60L64.20-21.60ZM63.52-3.36Q65.40-3.36 66.86-4.22Q68.32-5.08 68.92-6.68L68.92-6.68L68.92-9.16L63.76-9.16Q59.44-9.16 59.44-6.32L59.44-6.32Q59.44-4.96 60.52-4.16Q61.60-3.36 63.52-3.36L63.52-3.36Z"/></g>
</svg>
</g><g opacity="1" transform="rotate(0 322.7589 733.2546)">
<svg width="140.7192" height="140.7306" x="322.7589" y="733.2546" version="1.1" preserveAspectRatio="none" viewBox="6.675175666809082 6.667031288146973 86.65987396240234 86.6669692993164">
  <g transform="matrix(1 0 0 1 0 0)" class="icon1"><g><path d="M91.457,37.4c-0.161-0.527-0.719-0.827-1.248-0.665c-0.528,0.161-0.826,0.72-0.666,1.248   c1.936,6.351,2.305,12.908,1.097,19.49c-1.996,10.854-8.1,20.282-17.188,26.547c-1.753,1.209-3.578,2.269-5.458,3.183l17.319-18.76   c0.362-0.393,0.353-0.999-0.021-1.38l-7.869-8.011c-0.188-0.191-0.445-0.299-0.714-0.299H53.377c-0.254,0-0.498,0.097-0.684,0.27   l-8.56,8.011c-0.401,0.376-0.424,1.005-0.052,1.409l19.127,20.719c-3.882,1.315-7.934,2.041-12.047,2.147   c0.832-1.432,1.287-3.06,1.287-4.747c0-5.246-4.268-9.514-9.513-9.514c-0.679,0-1.341,0.074-1.98,0.21   c1.166-1.578,1.864-3.521,1.864-5.63c0-5.246-4.268-9.514-9.514-9.514c-5.245,0-9.513,4.268-9.513,9.514   c0,0.256,0.019,0.508,0.039,0.759c-1.554-1.104-3.448-1.761-5.495-1.761c-1.263,0-2.512,0.263-3.669,0.746   c-5.06-8.353-7.209-18.509-5.308-28.846c1.996-10.854,8.1-20.283,17.187-26.547c0.429-0.296,0.867-0.575,1.304-0.853v2.463   c-0.987,0.398-1.688,1.362-1.688,2.489v4.069c0,0.891,0.44,1.675,1.109,2.165l-3.872,5.364c-0.113,0.146-0.224,0.298-0.333,0.463   c-0.252,0.386-0.448,0.799-0.617,1.221c-0.515-0.337-1.128-0.537-1.789-0.537c-1.81,0-3.282,1.472-3.282,3.282   c0,1.811,1.472,3.283,3.282,3.283c0.092,0,0.179-0.02,0.269-0.027c-1.18,0.498-2.01,1.667-2.01,3.025   c0,1.361,0.833,2.53,2.015,3.027v3.807l-1.42,1.967c-0.036,0.049-0.071,0.096-0.104,0.146c-0.007,0.01-0.013,0.02-0.02,0.028   c-0.34,0.521-0.52,1.125-0.52,1.746c0,1.763,1.435,3.197,3.198,3.197c1.763,0,3.197-1.435,3.197-3.197   c0-0.621-0.18-1.225-0.516-1.74c-0.049-0.076-0.103-0.15-0.145-0.204l-1.671-2.316v-3.267c1.458-0.334,2.551-1.636,2.551-3.193   c0-0.166-0.025-0.325-0.049-0.485c0.207,0.119,0.419,0.228,0.639,0.324c-0.399,0.543-0.643,1.208-0.643,1.932   c0,1.459,0.963,2.685,2.282,3.111v6.448l-1.392,1.928c-0.048,0.063-0.095,0.128-0.14,0.192c-0.014,0.021-0.027,0.041-0.039,0.063   c-0.323,0.511-0.493,1.099-0.493,1.703c0,1.763,1.435,3.197,3.198,3.197c1.763,0,3.197-1.435,3.197-3.197   c0-0.624-0.18-1.229-0.508-1.727c-0.055-0.089-0.116-0.172-0.153-0.218l-1.671-2.315v-6.074c1.319-0.426,2.282-1.651,2.282-3.111   c0-0.686-0.212-1.321-0.573-1.849c0.165-0.066,0.324-0.141,0.482-0.22c-0.006,0.08-0.024,0.156-0.024,0.237   c0,1.41,0.898,2.605,2.149,3.068v3.824l-1.435,1.987c-0.03,0.041-0.061,0.083-0.089,0.126c-0.006,0.009-0.013,0.018-0.019,0.027   c-0.341,0.52-0.521,1.124-0.521,1.747c0,1.763,1.434,3.197,3.197,3.197s3.197-1.435,3.197-3.197c0-0.619-0.179-1.223-0.522-1.75   c-0.048-0.073-0.1-0.144-0.139-0.194l-1.67-2.314v-3.37c1.388-0.382,2.416-1.643,2.416-3.151c0-1.334-0.802-2.479-1.947-2.993   c0.176,0.029,0.353,0.054,0.537,0.054c1.81,0,3.282-1.473,3.282-3.283c0-1.81-1.472-3.282-3.282-3.282   c-0.661,0-1.273,0.2-1.789,0.537c-0.169-0.422-0.364-0.835-0.617-1.222c-0.113-0.172-0.233-0.339-0.334-0.464l-3.87-5.362   c0.669-0.489,1.109-1.274,1.109-2.165V20.08c0-1.127-0.7-2.091-1.687-2.489v-3.666c4.476-2.51,9.318-4.134,14.316-4.842   l9.818,8.996c-1.12,0.964-1.848,2.001-2.166,3.102c-3.267,1.118-5.872,3.717-6.995,6.985c-2.175,0.836-3.613,2.866-3.688,2.974   l-0.425,0.612l0.464,0.583c1.124,1.408,2.312,2.333,3.545,2.791c1.09,3.53,3.84,6.292,7.367,7.396   c0.89,2.033,2.769,3.362,2.872,3.434l0.612,0.425l0.582-0.464c1.366-1.091,2.285-2.239,2.758-3.431   c3.461-1.123,6.161-3.855,7.246-7.326c2.193-0.778,3.558-2.789,3.628-2.895l0.376-0.566l-0.388-0.558   c-1.143-1.646-2.402-2.686-3.758-3.111c-1.149-3.207-3.74-5.755-6.963-6.854c-0.396-1.302-1.236-2.334-1.927-3.003l8.391-6.457   c4.514,1.831,8.657,4.446,12.251,7.71v9.332c-3.212,0.485-5.684,3.256-5.684,6.602c0,3.684,2.998,6.682,6.684,6.682   s6.685-2.998,6.685-6.682c0-3.345-2.473-6.116-5.685-6.602v-7.395c2.146,2.23,4.061,4.706,5.681,7.409   c0.283,0.473,0.899,0.626,1.371,0.344c0.474-0.284,0.628-0.898,0.344-1.372C80.764,17.061,70.073,9.644,57.833,7.394   C46.454,5.3,34.939,7.765,25.412,14.333C15.885,20.901,9.486,30.785,7.394,42.166c-4.32,23.493,11.279,46.121,34.773,50.441   c2.644,0.486,5.294,0.727,7.926,0.727c8.696,0,17.182-2.624,24.496-7.666c9.527-6.567,15.926-16.452,18.019-27.832   C93.873,50.935,93.486,44.06,91.457,37.4z M29.538,24.149c0,0.379-0.308,0.688-0.687,0.688c-0.379,0-0.688-0.309-0.688-0.688V20.08   c0-0.378,0.309-0.687,0.688-0.687c0.378,0,0.687,0.308,0.687,0.687V24.149z M19.381,36.108c0-0.707,0.575-1.282,1.282-1.282   c0.708,0,1.283,0.575,1.283,1.282c0,0.708-0.576,1.283-1.283,1.283C19.956,37.391,19.381,36.815,19.381,36.108z M22.573,38.768   c0.061,0.133,0.122,0.267,0.191,0.396c-0.183-0.032-0.368-0.057-0.56-0.057c-0.092,0-0.179,0.02-0.269,0.027   C22.164,39.038,22.374,38.911,22.573,38.768z M23.269,53.109c0,0.66-0.537,1.197-1.197,1.197c-0.661,0-1.198-0.537-1.198-1.197   c0-0.229,0.062-0.442,0.184-0.636c0.038-0.049,0.072-0.098,0.09-0.127l0.924-1.279l1.002,1.39   C23.203,52.655,23.269,52.874,23.269,53.109z M22.204,43.671c-0.707,0-1.282-0.575-1.282-1.282s0.575-1.282,1.282-1.282   c0.708,0,1.283,0.575,1.283,1.282S22.912,43.671,22.204,43.671z M29.855,56.953c0.126,0.194,0.193,0.42,0.193,0.652   c0,0.66-0.537,1.197-1.197,1.197c-0.661,0-1.198-0.537-1.198-1.197c0-0.231,0.067-0.457,0.194-0.651l1.004-1.39l0.915,1.267   C29.774,56.843,29.847,56.942,29.855,56.953z M28.717,45.444c-0.707,0-1.282-0.576-1.282-1.283c0-0.707,0.575-1.282,1.282-1.282   s1.282,0.575,1.282,1.282C29.999,44.868,29.424,45.444,28.717,45.444z M36.364,53.109c0,0.66-0.537,1.197-1.197,1.197   s-1.197-0.537-1.197-1.197c0-0.232,0.063-0.45,0.189-0.645c0.034-0.043,0.063-0.084,0.084-0.118l0.924-1.279l1.002,1.388   C36.297,52.651,36.364,52.878,36.364,53.109z M35.167,43.612c-0.708,0-1.283-0.575-1.283-1.282c0-0.708,0.576-1.283,1.283-1.283   c0.707,0,1.282,0.576,1.282,1.283C36.449,43.037,35.874,43.612,35.167,43.612z M35.167,39.046c-0.062,0-0.119,0.015-0.18,0.018   c0.05-0.097,0.097-0.197,0.143-0.297c0.179,0.129,0.37,0.242,0.574,0.333C35.528,39.071,35.351,39.046,35.167,39.046z    M37.039,34.826c0.707,0,1.282,0.575,1.282,1.282c0,0.708-0.575,1.283-1.282,1.283s-1.282-0.576-1.282-1.283   C35.757,35.401,36.332,34.826,37.039,34.826z M32.959,33.234c0.521,0.8,0.797,1.725,0.797,2.675c0,2.705-2.201,4.905-4.905,4.905   s-4.905-2.201-4.905-4.905c0-0.951,0.275-1.876,0.801-2.681c0.073-0.112,0.154-0.22,0.256-0.353l3.848-5.331l3.854,5.338   C32.796,32.997,32.88,33.114,32.959,33.234z M51.712,23.353c0.33,1.848,1.647,3.3,2.504,4.07c-1.418,0.399-2.551,1.455-3.052,2.828   c-1.237-1.468-2.597-2.273-4.056-2.41C48.059,25.854,49.698,24.248,51.712,23.353z M55.445,34.379   c-1.418,0-2.572-1.154-2.572-2.573c0-1.419,1.154-2.573,2.572-2.573c1.419,0,2.573,1.154,2.573,2.573   C58.019,33.225,56.864,34.379,55.445,34.379z M46.661,29.807c1.058,0,2.1,0.633,3.105,1.883c-0.607,0.683-1.804,1.773-3.258,1.773   c-1.069,0-2.159-0.594-3.246-1.769C43.926,30.962,45.205,29.807,46.661,29.807z M51.644,40.223   c-2.108-0.951-3.786-2.655-4.695-4.785c1.886-0.169,3.338-1.374,4.16-2.253c0.431,1.349,1.458,2.422,2.784,2.904   C52.464,37.352,51.708,38.736,51.644,40.223z M55.518,43.829c-0.731-0.666-1.89-1.95-1.89-3.397c0-1.058,0.634-2.101,1.884-3.105   c0.664,0.59,1.715,1.738,1.771,3.139C57.327,41.573,56.734,42.702,55.518,43.829z M59.265,40.217   c-0.139-1.861-1.294-3.311-2.176-4.156c1.301-0.505,2.301-1.586,2.711-2.931c1.313,1.39,2.703,2.156,4.146,2.299   C63.041,37.555,61.367,39.262,59.265,40.217z M67.692,31.689c-0.608,0.682-1.81,1.774-3.257,1.774   c-1.068,0-2.157-0.594-3.244-1.768c0.666-0.731,1.949-1.889,3.396-1.889C65.646,29.807,66.688,30.439,67.692,31.689z    M63.807,27.879c-1.817,0.299-3.263,1.564-4.061,2.431c-0.478-1.368-1.58-2.429-2.971-2.856c1.424-1.292,2.242-2.659,2.447-4.079   C61.228,24.281,62.864,25.89,63.807,27.879z M57.283,22.539c0.044,1.108-0.549,2.237-1.766,3.363   c-0.731-0.666-1.89-1.95-1.89-3.397c0-1.044,0.621-2.075,1.84-3.068l0.008,0.007l0.046-0.035   C56.186,20.001,57.227,21.144,57.283,22.539z M83.454,35.358c0,2.582-2.102,4.682-4.685,4.682s-4.684-2.1-4.684-4.682   c0-2.583,2.101-4.685,4.684-4.685S83.454,32.775,83.454,35.358z M57.472,9.36c1.994,0.367,3.94,0.888,5.835,1.533l-7.72,5.94   l-8.774-8.04C50.332,8.527,53.907,8.705,57.472,9.36z M65.697,68.765h4.027l-4.027,13.77V68.765z M63.697,81.353l-3.682-12.588   h3.682V81.353z M71.809,68.765h5.165l-9.154,13.638L71.809,68.765z M65.697,66.765v-4.15l3.305,4.15H65.697z M63.697,66.765h-3.305   l3.305-4.149V66.765z M57.932,68.765l3.988,13.637l-9.152-13.637H57.932z M79.383,68.765h2.912l-10.67,11.557L79.383,68.765z    M72.278,66.765l1.971-4.799l2.913,4.799H72.278z M70.607,65.569l-3.835-4.815h5.813L70.607,65.569z M58.964,65.349l-1.887-4.595   h5.546L58.964,65.349z M57.384,66.765h-4.885l2.914-4.799L57.384,66.765z M50.358,68.765l8.678,12.929L47.101,68.765H50.358z    M82.194,66.765h-2.693l-3.648-6.011h0.438L82.194,66.765z M53.771,60.754h0.038l-3.65,6.011h-2.81L53.771,60.754z M50.449,86.563   c0,1.742-0.604,3.408-1.699,4.746c-1.934-0.063-3.875-0.267-5.814-0.604v-1.146c-1.652,0-2.996-1.344-2.996-2.996   s1.344-2.996,2.996-2.996v-2c-2.755,0-4.996,2.241-4.996,4.996c0,1.278,0.497,2.434,1.289,3.318   c-1.18-0.318-2.336-0.685-3.466-1.099c-0.221-0.716-0.34-1.46-0.34-2.22c0-4.143,3.37-7.514,7.513-7.514   S50.449,82.42,50.449,86.563z M33.516,87.881c-2.335-1.016-4.546-2.232-6.615-3.632c0.614-1.278,0.95-2.677,0.95-4.108   c0-0.258-0.019-0.51-0.039-0.763c1.554,1.104,3.447,1.761,5.494,1.761c0.68,0,1.342-0.074,1.982-0.211   c-1.167,1.579-1.866,3.524-1.866,5.635C33.423,87.007,33.455,87.446,33.516,87.881z M33.307,64.115   c4.143,0,7.514,3.371,7.514,7.514c0,4.141-3.371,7.51-7.514,7.51c-4.143,0-7.513-3.369-7.513-7.51   C25.794,67.486,29.164,64.115,33.307,64.115z M15.765,73.09c0.821-0.299,1.692-0.463,2.572-0.463c4.143,0,7.514,3.371,7.514,7.514   c0,1.015-0.208,2.01-0.6,2.933C21.538,80.284,18.337,76.901,15.765,73.09z"></path><path d="M87.183,31.97c0.358,0.738,0.699,1.497,1.011,2.253c0.159,0.386,0.532,0.619,0.925,0.619c0.127,0,0.257-0.024,0.381-0.076   c0.511-0.21,0.754-0.795,0.544-1.306c-0.328-0.794-0.686-1.59-1.062-2.365c-0.241-0.496-0.836-0.703-1.337-0.462   C87.148,30.875,86.941,31.473,87.183,31.97z"></path><path d="M45.929,53.723c-0.503,0.229-0.726,0.821-0.498,1.324l1.668,3.678c0.167,0.369,0.531,0.587,0.911,0.587   c0.138,0,0.279-0.028,0.413-0.089c0.503-0.229,0.726-0.821,0.498-1.324l-1.668-3.678C47.024,53.718,46.431,53.496,45.929,53.723z"></path><path d="M52.869,45.91c-0.531,0.153-0.838,0.707-0.685,1.238l1.681,5.836c0.126,0.438,0.526,0.724,0.961,0.724   c0.091,0,0.185-0.013,0.276-0.039c0.531-0.152,0.838-0.707,0.685-1.237l-1.681-5.837C53.954,46.065,53.401,45.755,52.869,45.91z"></path><path d="M81.106,54.221l-1.668,3.678c-0.228,0.503-0.005,1.096,0.498,1.324c0.134,0.061,0.274,0.089,0.412,0.089   c0.381,0,0.744-0.218,0.912-0.587l1.668-3.678c0.228-0.503,0.005-1.096-0.498-1.324C81.928,53.495,81.335,53.719,81.106,54.221z"></path><path d="M74.253,46.594l-1.681,5.837c-0.153,0.53,0.153,1.085,0.685,1.237c0.092,0.026,0.186,0.039,0.276,0.039   c0.435,0,0.835-0.285,0.961-0.724l1.681-5.836c0.153-0.531-0.153-1.085-0.685-1.238C74.96,45.755,74.405,46.065,74.253,46.594z"></path><path d="M62.456,42.554v6.79c0,0.552,0.447,1,1,1s1-0.448,1-1v-6.79c0-0.552-0.447-1-1-1S62.456,42.001,62.456,42.554z"></path><path d="M33.307,76.625v-2c-1.652,0-2.996-1.344-2.996-2.996s1.344-2.996,2.996-2.996v-2c-2.755,0-4.996,2.241-4.996,4.996   S30.552,76.625,33.307,76.625z"></path><path d="M75.102,35.358c0,2.022,1.646,3.668,3.668,3.668v-2c-0.92,0-1.668-0.748-1.668-1.668s0.748-1.668,1.668-1.668v-2   C76.747,31.69,75.102,33.336,75.102,35.358z"></path><path d="M28.041,30.267l-1.716,2.377c-0.05,0.065-0.099,0.131-0.145,0.2c-0.01,0.015-0.019,0.029-0.028,0.045   c-0.327,0.513-0.499,1.104-0.499,1.712c0,1.764,1.435,3.198,3.198,3.198c1.763,0,3.197-1.435,3.197-3.198   c0-0.622-0.18-1.226-0.516-1.74c-0.051-0.079-0.107-0.156-0.145-0.204l-1.726-2.391c-0.188-0.26-0.49-0.415-0.811-0.415   S28.229,30.006,28.041,30.267z M29.854,33.948c0.127,0.195,0.194,0.421,0.194,0.653c0,0.661-0.537,1.198-1.197,1.198   c-0.661,0-1.198-0.538-1.198-1.198c0-0.231,0.067-0.457,0.191-0.647l1.007-1.393L29.854,33.948z"></path></g></g>
</svg>
</g></svg></svg>